<?xml version="1.0" encoding="UTF-8"?>
<svg width="341px" height="110px" viewBox="0 0 341 110" version="1.1" xmlns="http://www.w3.org/2000/svg" xmlns:xlink="http://www.w3.org/1999/xlink">
    <!-- Generator: Sketch 62 (91390) - https://sketch.com -->
    <title>ATRIB</title>
    <desc>Created with Sketch.</desc>
    <g id="Style-Guide" stroke="none" stroke-width="1" fill="none" fill-rule="evenodd">
        <path d="M22.88,84.5 L31.59,65.26 L54.86,65.26 L55.38,84.5 L77.22,84.5 L69.16,0 L44.2,0 L0,84.5 L22.88,84.5 Z M54.34,49.66 L38.74,49.66 L43.16,39.78 C44.98,35.7066667 46.6483333,31.6983333 48.165,27.755 C49.6816667,23.8116667 51.3066667,19.76 53.04,15.6 L53.04,15.6 L53.56,15.6 C53.56,19.9333333 53.6033333,24.0283333 53.69,27.885 C53.7766667,31.7416667 53.9066667,35.7066667 54.08,39.78 L54.08,39.78 L54.34,49.66 Z M108.303418,109.5 L126.36,17.42 L147.68,17.42 L151.06,0 L87.62,0 L84.24,17.42 L105.56,17.42 L87.3460402,109.5 L108.303418,109.5 Z M168.22,84.5 L173.94,55.38 L182.65,55.38 L192.4,84.5 L214.24,84.5 L201.63,52.13 C204.576667,51.0033333 207.306667,49.5516667 209.82,47.775 C212.333333,45.9983333 214.5,43.875 216.32,41.405 C218.14,38.935 219.548333,36.1183333 220.545,32.955 C221.541667,29.7916667 222.04,26.26 222.04,22.36 C222.04,18.2866667 221.281667,14.82 219.765,11.96 C218.248333,9.1 216.146667,6.78166667 213.46,5.005 C210.773333,3.22833333 207.61,1.95 203.97,1.17 C200.33,0.39 196.386667,0 192.14,0 L192.14,0 L164.32,0 L147.42,84.5 L168.22,84.5 Z M184.86,39 L177.32,39 L181.74,16.38 L189.28,16.38 C193.18,16.38 196.191667,17.1166667 198.315,18.59 C200.438333,20.0633333 201.5,22.36 201.5,25.48 C201.5,29.5533333 200.135,32.825 197.405,35.295 C194.675,37.765 190.493333,39 184.86,39 L184.86,39 Z M247.78,84.5 L264.68,0 L243.88,0 L226.98,84.5 L247.78,84.5 Z M299.26,84.5 C304.2,84.5 308.923333,83.98 313.43,82.94 C317.936667,81.9 321.88,80.275 325.26,78.065 C328.64,75.855 331.348333,72.9733333 333.385,69.42 C335.421667,65.8666667 336.44,61.5333333 336.44,56.42 C336.44,48.5333333 331.673333,43.42 322.14,41.08 L322.14,41.08 L322.4,40.56 C328.293333,38.74 332.8,35.9233333 335.92,32.11 C339.04,28.2966667 340.6,24.0933333 340.6,19.5 C340.6,16.0333333 339.863333,13.065 338.39,10.595 C336.916667,8.125 334.88,6.11 332.28,4.55 C329.68,2.99 326.581667,1.84166667 322.985,1.105 C319.388333,0.368333333 315.466667,0 311.22,0 L311.22,0 L284.18,0 L267.28,84.5 L299.26,84.5 Z M305.24,33.8 L298.22,33.8 L301.86,15.86 L307.84,15.86 C315.466667,15.86 319.28,18.2866667 319.28,23.14 C319.28,26.4333333 318.218333,29.0333333 316.095,30.94 C313.971667,32.8466667 310.353333,33.8 305.24,33.8 L305.24,33.8 Z M300.82,68.64 L291.2,68.64 L295.36,47.84 L304.98,47.84 C312.606667,47.84 316.42,50.96 316.42,57.2 C316.42,60.7533333 315.12,63.5483333 312.52,65.585 C309.92,67.6216667 306.02,68.64 300.82,68.64 L300.82,68.64 Z" id="ATRIB" fill="#FFFFFF" fill-rule="nonzero"></path>
    </g>
</svg>